<svg width="375" height="812" viewBox="0 0 375 812" fill="none" xmlns="http://www.w3.org/2000/svg">
<g clip-path="url(#clip0)">
<rect width="375" height="812" fill="white"/>
<path opacity="0.57" fill-rule="evenodd" clip-rule="evenodd" d="M0 390.199V0H375V387.638C324.33 431.478 258.262 458 186 458C115.156 458 50.265 432.509 0 390.199Z" fill="#FFC542" fill-opacity="0.3"/>
<ellipse cx="238" cy="343.5" rx="50" ry="49.5" fill="#F5AF19"/>
<path fill-rule="evenodd" clip-rule="evenodd" d="M375 388C324.33 431.84 258.262 458.362 186 458.362C115.156 458.362 50.265 432.871 0 390.56V812.362H375V388Z" fill="white"/>
<path opacity="0.4" fill-rule="evenodd" clip-rule="evenodd" d="M375 440C321.71 477.171 256.901 498.97 187 498.97C117.536 498.97 53.1001 477.443 0 440.695V811.97H375V440Z" fill="#FFC542"/>
<path opacity="0.3" fill-rule="evenodd" clip-rule="evenodd" d="M375 388C324.33 431.84 258.262 458.362 186 458.362C115.156 458.362 50.265 432.871 0 390.56V812.362H375V388Z" fill="#FFC542"/>
<ellipse opacity="0.223" cx="189.383" cy="630.917" rx="112.383" ry="17.917" fill="#FFC542"/>
<path d="M80.2031 170H69.7031V90.375H80.2031V170ZM110.008 161.414H147.742V170H99.4531V90.375H110.008V161.414ZM170.273 161.414H208.008V170H159.719V90.375H170.273V161.414ZM231.25 170H220.75V90.375H231.25V170ZM295.453 149.219H262.094L254.602 170H243.773L274.18 90.375H283.367L313.828 170H303.055L295.453 149.219ZM265.266 140.578H292.336L278.773 103.336L265.266 140.578Z" fill="#25C685"/>
<path fill-rule="evenodd" clip-rule="evenodd" d="M16.4002 338.609C32.6118 339.691 46.2582 350.145 51.9693 364.6C56.4027 362.043 61.5466 360.58 67.0322 360.58C83.7077 360.58 97.2258 374.098 97.2258 390.774C97.2258 407.449 83.7077 420.967 67.0322 420.967C64.7475 420.967 62.522 420.714 60.3824 420.233C57.3145 425.203 51.8183 428.516 45.5484 428.516C38.3065 428.516 32.0969 424.097 29.4689 417.808C24.5879 419.843 19.2317 420.967 13.6129 420.967C6.73895 420.967 0.257942 419.285 -5.44085 416.31C-9.96145 425.598 -19.4912 432 -30.5161 432C-40.2343 432 -48.7908 427.026 -53.7788 419.485C-57.2792 420.451 -60.9664 420.967 -64.7742 420.967C-87.5426 420.967 -106 402.51 -106 379.742C-106 356.973 -87.5426 338.516 -64.7742 338.516C-52.7955 338.516 -42.01 343.625 -34.4778 351.782C-33.2557 337.518 -21.2902 326.322 -6.70967 326.322C2.91001 326.322 11.3914 331.196 16.4002 338.609Z" fill="#868BA0" fill-opacity="0.6"/>
<path fill-rule="evenodd" clip-rule="evenodd" d="M61.6188 313.46C62.8409 299.196 74.8065 288 89.387 288C99.0067 288 107.488 292.874 112.497 300.286C128.709 301.369 142.355 311.823 148.066 326.278C152.499 323.721 157.643 322.258 163.129 322.258C179.804 322.258 193.322 335.776 193.322 352.452C193.322 369.127 179.804 382.645 163.129 382.645C160.844 382.645 158.619 382.391 156.479 381.91C153.411 386.881 147.915 390.194 141.645 390.194C134.403 390.194 128.194 385.774 125.566 379.486C120.685 381.521 115.328 382.645 109.71 382.645C102.836 382.645 96.3546 380.963 90.6558 377.987C86.1352 387.276 76.6054 393.677 65.5806 393.677C55.8624 393.677 47.3059 388.704 42.3179 381.163C38.8175 382.129 35.1303 382.645 31.3225 382.645C8.5541 382.645 -9.90332 364.188 -9.90332 341.419C-9.90332 318.651 8.5541 300.194 31.3225 300.194C43.3012 300.194 54.0867 305.302 61.6188 313.46Z" fill="#767A8E" fill-opacity="0.7"/>
<rect x="120" y="799" width="135" height="5" rx="2.5" fill="black"/>
<path fill-rule="evenodd" clip-rule="evenodd" d="M103.977 425.969C101.35 422.893 99.572 419.123 99.8691 414.899C100.725 402.729 117.709 405.406 121.013 411.549C124.317 417.691 123.924 433.272 119.654 434.37C117.951 434.808 114.324 433.736 110.632 431.516L112.949 447.869H99.2666L103.977 425.969Z" fill="#B28B67"/>
<path fill-rule="evenodd" clip-rule="evenodd" d="M113.214 404.469C111.411 404.174 106.555 403.972 105.659 403.972C105.087 403.972 104.467 404.102 104.128 403.578C103.851 403.149 103.952 402.423 103.869 401.925C103.773 401.346 103.637 400.775 103.498 400.205C103.105 398.584 102.511 397.042 101.679 395.594C100.118 392.878 97.8305 390.75 94.9432 389.511C91.7549 388.144 88.147 387.831 84.7175 388.108C81.0474 388.405 77.7252 389.614 74.2601 390.751C70.958 391.835 67.4994 392.261 64.0458 391.732C60.5661 391.199 57.9369 389.318 55.0019 387.532C51.9973 385.704 48.5636 384.509 45.0115 384.783C41.6959 385.04 38.6399 386.406 35.8982 388.23C33.333 389.937 31.2163 391.99 30.0213 394.881C28.7358 397.99 28.737 401.402 30.851 404.15C33.9152 408.132 39.6037 409.162 44.3363 409.06C47.0737 409.001 49.7622 408.503 52.3467 407.596C55.7933 406.387 58.7718 404.337 61.9963 402.674C63.5095 401.894 65.0737 401.253 66.7132 400.791C68.3042 400.343 69.8712 400.137 71.3117 401.096C72.8355 402.11 74.201 403.106 75.9443 403.741C77.6167 404.35 79.3881 404.691 81.1699 404.677C84.6366 404.651 88.0539 403.573 91.4209 402.851C94.1666 402.263 97.1044 401.677 99.9036 402.242C101.072 402.478 102.778 402.966 103.2 404.176C96.0991 405.46 93.3104 414.22 95.3121 420.65C96.3925 424.12 102.887 428.178 105.412 426.353C107.011 425.197 106.04 423.68 105.412 422.678C104.208 420.759 103.796 418.295 106.024 416.959C107.945 415.808 109.965 418.543 110.003 418.54C110.531 418.499 115.093 415.925 118.237 412.169C121.338 412.352 121.808 410.313 121.068 408.645C120.327 406.976 115.706 404.877 113.214 404.469Z" fill="#191847"/>
<path fill-rule="evenodd" clip-rule="evenodd" d="M95.8525 495.083L138.216 565.73L169.976 625.456H176.817L123.602 495.083L95.8525 495.083Z" fill="#997659"/>
<path fill-rule="evenodd" clip-rule="evenodd" d="M165.793 622.699C165.155 624.397 164.836 625.668 164.836 626.511C164.836 627.537 165.008 629.033 165.35 631.001C166.543 631.001 177.261 631.001 197.506 631.001C198.342 628.245 197.859 626.758 196.059 626.538C194.259 626.318 192.763 626.12 191.572 625.943L176.626 619.296C176.339 619.169 176.002 619.297 175.874 619.584C175.871 619.589 175.869 619.594 175.867 619.599L174.907 621.924C173.24 622.699 171.886 623.087 170.844 623.087C169.997 623.087 168.828 622.746 167.336 622.064L167.336 622.064C166.764 621.802 166.087 622.053 165.824 622.624C165.813 622.649 165.803 622.674 165.793 622.699Z" fill="#E4E4E4"/>
<path fill-rule="evenodd" clip-rule="evenodd" d="M161.155 615.892L174.348 611.911C168.568 594.675 161.484 575.708 153.095 555.009C144.707 534.309 135.698 514.334 126.069 495.083H88.8081C99.5138 519.435 110.863 541.562 122.857 561.464C134.85 581.366 147.616 599.508 161.155 615.892Z" fill="#DB2721"/>
<path fill-rule="evenodd" clip-rule="evenodd" d="M93.0681 495.083C89.0698 519.909 81.3582 551.627 80.6304 552.605C80.1452 553.258 62.6786 559.096 28.2305 570.12L29.7082 576.138C70.7875 570.225 92.4327 565.638 94.644 562.377C97.9609 557.484 114.523 518.833 120.937 495.083H93.0681Z" fill="#B28B67"/>
<path fill-rule="evenodd" clip-rule="evenodd" d="M40.3394 564.919L42.9422 574.61C73.6671 577.298 92.4929 575.356 99.4197 568.783C106.346 562.211 114.241 537.644 123.103 495.083H87.5728C81.958 529.935 78.8189 548.092 78.1556 549.555C77.4924 551.018 64.8869 556.139 40.3394 564.919Z" fill="#FF4133"/>
<path fill-rule="evenodd" clip-rule="evenodd" d="M29.9114 567.612C28.125 567.28 26.8159 567.187 25.9841 567.333C24.9724 567.511 23.5259 567.938 21.6446 568.616C21.852 569.787 23.7162 580.318 27.2372 600.208C30.1009 600.551 31.4846 599.82 31.3883 598.013C31.2919 596.206 31.2275 594.702 31.1951 593.502L35.1522 577.666C35.2283 577.362 35.0426 577.053 34.7373 576.976C34.732 576.975 34.7268 576.974 34.7216 576.973L32.2613 576.432C31.2062 574.929 30.588 573.665 30.4068 572.642C30.2596 571.81 30.3927 570.602 30.8061 569.018L30.8062 569.018C30.9648 568.41 30.5998 567.789 29.9908 567.63C29.9646 567.623 29.9381 567.617 29.9114 567.612Z" fill="#E4E4E4"/>
<path fill-rule="evenodd" clip-rule="evenodd" d="M148.075 441.539L169.852 435.001C173.914 431.839 177.746 429.527 181.347 428.065C182.395 427.868 184.129 427.982 181.962 430.44C179.795 432.898 177.626 435.581 178.245 436.611C178.864 437.642 181.118 436.865 181.77 438.498C182.205 439.586 178.471 440.366 170.567 440.836L153.635 450.801L148.075 441.539ZM146.151 479.933L164.477 493.39C169.448 494.731 173.6 496.4 176.935 498.396C177.723 499.114 178.675 500.568 175.408 500.316C172.141 500.065 168.693 499.948 168.243 501.062C167.792 502.177 169.769 503.509 168.858 505.013C168.25 506.015 165.38 503.502 160.248 497.473L142.1 489.947L146.151 479.933Z" fill="#B28B67"/>
<path fill-rule="evenodd" clip-rule="evenodd" d="M117.685 443.691C127.665 462.299 142.097 476.564 163.018 491.393L155.097 500.325C131.737 491.644 119.408 486.406 113.354 468.825C111.834 464.412 110.772 450.346 109.861 442.945L117.685 443.691Z" fill="#2026A2"/>
<path fill-rule="evenodd" clip-rule="evenodd" d="M89.7852 505.689H134.024C124.003 475.128 118.884 454.152 118.667 442.762C118.656 442.182 117.583 441.159 117.109 441.293C113.639 442.272 109.926 441.906 105.971 440.193C95.483 457.061 91.8562 477.827 89.7852 505.689Z" fill="#F2F2F2"/>
<path fill-rule="evenodd" clip-rule="evenodd" d="M109.746 440.221C122.427 440.325 143.001 442.641 166.728 435.023L169.07 446.729C151.137 458.262 132.979 467.196 117.068 465.928C123.977 495.565 123.659 519.827 108.405 519.827C101.12 519.827 93.2574 519.827 84.8167 519.827C81.0704 494.65 90.9164 459.742 100.044 442.134C100.393 441.462 101.135 440.194 102.883 440.194C104.406 440.194 106.691 440.194 109.737 440.194C109.74 440.203 109.743 440.212 109.746 440.221Z" fill="#1F28CF"/>
<path d="M98.8 190.96V195.184H103.984C104.4 195.184 104.744 195.32 105.016 195.592C105.304 195.848 105.448 196.184 105.448 196.6C105.448 196.952 105.304 197.264 105.016 197.536C104.744 197.808 104.4 197.944 103.984 197.944H98.8V203.536C98.8 203.952 98.648 204.304 98.344 204.592C98.056 204.864 97.712 205 97.312 205C96.864 205 96.496 204.864 96.208 204.592C95.936 204.32 95.8 203.968 95.8 203.536V189.664C95.8 189.248 95.936 188.904 96.208 188.632C96.496 188.344 96.848 188.2 97.264 188.2H105.064C105.48 188.2 105.824 188.336 106.096 188.608C106.384 188.864 106.528 189.2 106.528 189.616C106.528 189.968 106.384 190.28 106.096 190.552C105.824 190.824 105.48 190.96 105.064 190.96H98.8ZM121.021 198.592C121.021 199.872 120.733 201.024 120.157 202.048C119.581 203.056 118.789 203.84 117.781 204.4C116.789 204.96 115.693 205.24 114.493 205.24C113.277 205.24 112.173 204.96 111.181 204.4C110.189 203.84 109.405 203.056 108.829 202.048C108.253 201.024 107.965 199.872 107.965 198.592C107.965 197.312 108.253 196.168 108.829 195.16C109.405 194.136 110.189 193.344 111.181 192.784C112.173 192.208 113.277 191.92 114.493 191.92C115.693 191.92 116.789 192.208 117.781 192.784C118.789 193.344 119.581 194.136 120.157 195.16C120.733 196.168 121.021 197.312 121.021 198.592ZM118.141 198.592C118.141 197.808 117.973 197.112 117.637 196.504C117.317 195.88 116.877 195.4 116.317 195.064C115.773 194.728 115.165 194.56 114.493 194.56C113.821 194.56 113.205 194.728 112.645 195.064C112.101 195.4 111.661 195.88 111.325 196.504C111.005 197.112 110.845 197.808 110.845 198.592C110.845 199.376 111.005 200.072 111.325 200.68C111.661 201.288 112.101 201.76 112.645 202.096C113.205 202.432 113.821 202.6 114.493 202.6C115.165 202.6 115.773 202.432 116.317 202.096C116.877 201.76 117.317 201.288 117.637 200.68C117.973 200.072 118.141 199.376 118.141 198.592ZM130.099 191.92C130.579 191.92 130.979 192.056 131.299 192.328C131.635 192.6 131.803 192.92 131.803 193.288C131.803 193.784 131.675 194.16 131.419 194.416C131.163 194.656 130.859 194.776 130.507 194.776C130.267 194.776 129.995 194.72 129.691 194.608C129.643 194.592 129.531 194.56 129.355 194.512C129.195 194.464 129.019 194.44 128.827 194.44C128.411 194.44 128.011 194.568 127.627 194.824C127.243 195.08 126.923 195.472 126.667 196C126.427 196.512 126.307 197.128 126.307 197.848V203.536C126.307 203.952 126.171 204.304 125.899 204.592C125.627 204.864 125.283 205 124.867 205C124.451 205 124.107 204.864 123.835 204.592C123.563 204.304 123.427 203.952 123.427 203.536V193.624C123.427 193.208 123.563 192.864 123.835 192.592C124.107 192.304 124.451 192.16 124.867 192.16C125.283 192.16 125.627 192.304 125.899 192.592C126.171 192.864 126.307 193.208 126.307 193.624V193.936C126.675 193.28 127.203 192.784 127.891 192.448C128.579 192.096 129.315 191.92 130.099 191.92ZM151.192 191.92C151.608 191.92 151.952 192.056 152.224 192.328C152.496 192.6 152.632 192.952 152.632 193.384V204.064C152.632 206.016 152.024 207.456 150.808 208.384C149.608 209.328 148.08 209.8 146.224 209.8C145.744 209.8 145.08 209.72 144.232 209.56C143.4 209.4 142.808 209.24 142.456 209.08C141.672 208.744 141.28 208.28 141.28 207.688C141.28 207.576 141.304 207.448 141.352 207.304C141.448 206.952 141.608 206.68 141.832 206.488C142.072 206.312 142.328 206.224 142.6 206.224C142.76 206.224 142.912 206.248 143.056 206.296C143.12 206.312 143.512 206.456 144.232 206.728C144.968 207.016 145.632 207.16 146.224 207.16C147.408 207.16 148.288 206.92 148.864 206.44C149.456 205.976 149.752 205.312 149.752 204.448V203.296C149.4 203.792 148.864 204.24 148.144 204.64C147.44 205.04 146.68 205.24 145.864 205.24C144.744 205.24 143.72 204.96 142.792 204.4C141.88 203.824 141.16 203.032 140.632 202.024C140.104 201.016 139.84 199.872 139.84 198.592C139.84 197.312 140.096 196.168 140.608 195.16C141.136 194.136 141.848 193.344 142.744 192.784C143.656 192.208 144.664 191.92 145.768 191.92C146.584 191.92 147.344 192.088 148.048 192.424C148.752 192.76 149.32 193.168 149.752 193.648V193.384C149.752 192.968 149.888 192.624 150.16 192.352C150.432 192.064 150.776 191.92 151.192 191.92ZM146.224 202.6C147.296 202.6 148.168 202.224 148.84 201.472C149.528 200.704 149.872 199.744 149.872 198.592C149.872 197.44 149.528 196.48 148.84 195.712C148.168 194.944 147.296 194.56 146.224 194.56C145.152 194.56 144.28 194.944 143.608 195.712C142.936 196.48 142.6 197.44 142.6 198.592C142.6 199.744 142.936 200.704 143.608 201.472C144.28 202.224 145.152 202.6 146.224 202.6ZM167.615 198.592C167.615 199.872 167.327 201.024 166.751 202.048C166.175 203.056 165.383 203.84 164.375 204.4C163.383 204.96 162.287 205.24 161.087 205.24C159.871 205.24 158.767 204.96 157.775 204.4C156.783 203.84 155.999 203.056 155.423 202.048C154.847 201.024 154.559 199.872 154.559 198.592C154.559 197.312 154.847 196.168 155.423 195.16C155.999 194.136 156.783 193.344 157.775 192.784C158.767 192.208 159.871 191.92 161.087 191.92C162.287 191.92 163.383 192.208 164.375 192.784C165.383 193.344 166.175 194.136 166.751 195.16C167.327 196.168 167.615 197.312 167.615 198.592ZM164.735 198.592C164.735 197.808 164.567 197.112 164.231 196.504C163.911 195.88 163.471 195.4 162.911 195.064C162.367 194.728 161.759 194.56 161.087 194.56C160.415 194.56 159.799 194.728 159.239 195.064C158.695 195.4 158.255 195.88 157.919 196.504C157.599 197.112 157.439 197.808 157.439 198.592C157.439 199.376 157.599 200.072 157.919 200.68C158.255 201.288 158.695 201.76 159.239 202.096C159.799 202.432 160.415 202.6 161.087 202.6C161.759 202.6 162.367 202.432 162.911 202.096C163.471 201.76 163.911 201.288 164.231 200.68C164.567 200.072 164.735 199.376 164.735 198.592ZM182.357 198.592C182.357 199.872 182.069 201.024 181.493 202.048C180.917 203.056 180.125 203.84 179.117 204.4C178.125 204.96 177.029 205.24 175.829 205.24C174.613 205.24 173.509 204.96 172.517 204.4C171.525 203.84 170.741 203.056 170.165 202.048C169.589 201.024 169.301 199.872 169.301 198.592C169.301 197.312 169.589 196.168 170.165 195.16C170.741 194.136 171.525 193.344 172.517 192.784C173.509 192.208 174.613 191.92 175.829 191.92C177.029 191.92 178.125 192.208 179.117 192.784C180.125 193.344 180.917 194.136 181.493 195.16C182.069 196.168 182.357 197.312 182.357 198.592ZM179.477 198.592C179.477 197.808 179.309 197.112 178.973 196.504C178.653 195.88 178.213 195.4 177.653 195.064C177.109 194.728 176.501 194.56 175.829 194.56C175.157 194.56 174.541 194.728 173.981 195.064C173.437 195.4 172.997 195.88 172.661 196.504C172.341 197.112 172.181 197.808 172.181 198.592C172.181 199.376 172.341 200.072 172.661 200.68C172.997 201.288 173.437 201.76 173.981 202.096C174.541 202.432 175.157 202.6 175.829 202.6C176.501 202.6 177.109 202.432 177.653 202.096C178.213 201.76 178.653 201.288 178.973 200.68C179.309 200.072 179.477 199.376 179.477 198.592ZM195.155 187.24C195.571 187.24 195.915 187.376 196.187 187.648C196.459 187.92 196.595 188.272 196.595 188.704V203.536C196.595 203.952 196.459 204.304 196.187 204.592C195.915 204.864 195.571 205 195.155 205C194.739 205 194.395 204.864 194.123 204.592C193.867 204.32 193.731 203.976 193.715 203.56C193.315 204.024 192.771 204.424 192.083 204.76C191.411 205.08 190.699 205.24 189.947 205.24C188.843 205.24 187.843 204.96 186.947 204.4C186.051 203.824 185.339 203.032 184.811 202.024C184.299 201.016 184.043 199.872 184.043 198.592C184.043 197.312 184.299 196.168 184.811 195.16C185.323 194.136 186.019 193.344 186.899 192.784C187.795 192.208 188.779 191.92 189.851 191.92C190.619 191.92 191.339 192.064 192.011 192.352C192.683 192.624 193.251 192.976 193.715 193.408V188.704C193.715 188.288 193.851 187.944 194.123 187.672C194.395 187.384 194.739 187.24 195.155 187.24ZM190.307 202.6C191.347 202.6 192.195 202.224 192.851 201.472C193.507 200.704 193.835 199.744 193.835 198.592C193.835 197.44 193.507 196.48 192.851 195.712C192.195 194.944 191.347 194.56 190.307 194.56C189.283 194.56 188.443 194.944 187.787 195.712C187.131 196.48 186.803 197.44 186.803 198.592C186.803 199.744 187.123 200.704 187.763 201.472C188.419 202.224 189.267 202.6 190.307 202.6ZM213.187 191.92C214.771 191.92 215.867 192.408 216.475 193.384C217.083 194.344 217.387 195.68 217.387 197.392V203.536C217.387 203.952 217.251 204.304 216.979 204.592C216.707 204.864 216.363 205 215.947 205C215.531 205 215.187 204.864 214.915 204.592C214.643 204.304 214.507 203.952 214.507 203.536V197.392C214.507 196.512 214.331 195.824 213.979 195.328C213.643 194.816 213.043 194.56 212.179 194.56C211.283 194.56 210.579 194.832 210.067 195.376C209.571 195.904 209.323 196.576 209.323 197.392V203.536C209.323 203.952 209.187 204.304 208.915 204.592C208.643 204.864 208.299 205 207.883 205C207.467 205 207.123 204.864 206.851 204.592C206.579 204.304 206.443 203.952 206.443 203.536V188.704C206.443 188.288 206.579 187.944 206.851 187.672C207.123 187.384 207.467 187.24 207.883 187.24C208.299 187.24 208.643 187.384 208.915 187.672C209.187 187.944 209.323 188.288 209.323 188.704V194.008C209.755 193.432 210.299 192.944 210.955 192.544C211.627 192.128 212.371 191.92 213.187 191.92ZM232.025 198.28C232.009 198.664 231.857 198.976 231.569 199.216C231.281 199.456 230.945 199.576 230.561 199.576H222.641C222.833 200.52 223.273 201.264 223.961 201.808C224.649 202.336 225.425 202.6 226.289 202.6C226.945 202.6 227.457 202.544 227.825 202.432C228.193 202.304 228.481 202.176 228.689 202.048C228.913 201.904 229.065 201.808 229.145 201.76C229.433 201.616 229.705 201.544 229.961 201.544C230.297 201.544 230.585 201.664 230.825 201.904C231.065 202.144 231.185 202.424 231.185 202.744C231.185 203.176 230.961 203.568 230.513 203.92C230.065 204.288 229.465 204.6 228.713 204.856C227.961 205.112 227.201 205.24 226.433 205.24C225.089 205.24 223.913 204.96 222.905 204.4C221.913 203.84 221.145 203.072 220.601 202.096C220.057 201.104 219.785 199.992 219.785 198.76C219.785 197.384 220.073 196.176 220.649 195.136C221.225 194.096 221.985 193.304 222.929 192.76C223.873 192.2 224.881 191.92 225.953 191.92C227.009 191.92 228.001 192.208 228.929 192.784C229.873 193.36 230.625 194.136 231.185 195.112C231.745 196.088 232.025 197.144 232.025 198.28ZM225.953 194.56C224.097 194.56 223.001 195.432 222.665 197.176H228.953V197.008C228.889 196.336 228.561 195.76 227.969 195.28C227.377 194.8 226.705 194.56 225.953 194.56ZM244.913 191.92C245.329 191.92 245.673 192.056 245.945 192.328C246.217 192.6 246.353 192.952 246.353 193.384V203.536C246.353 203.952 246.217 204.304 245.945 204.592C245.673 204.864 245.329 205 244.913 205C244.497 205 244.153 204.864 243.881 204.592C243.625 204.32 243.489 203.976 243.473 203.56C243.073 204.024 242.529 204.424 241.841 204.76C241.169 205.08 240.457 205.24 239.705 205.24C238.601 205.24 237.601 204.96 236.705 204.4C235.809 203.824 235.097 203.032 234.569 202.024C234.057 201.016 233.801 199.872 233.801 198.592C233.801 197.312 234.057 196.168 234.569 195.16C235.081 194.136 235.777 193.344 236.657 192.784C237.553 192.208 238.537 191.92 239.609 191.92C240.377 191.92 241.097 192.064 241.769 192.352C242.441 192.624 243.009 192.976 243.473 193.408V193.384C243.473 192.968 243.609 192.624 243.881 192.352C244.153 192.064 244.497 191.92 244.913 191.92ZM240.065 202.6C241.105 202.6 241.953 202.224 242.609 201.472C243.265 200.704 243.593 199.744 243.593 198.592C243.593 197.44 243.265 196.48 242.609 195.712C241.953 194.944 241.105 194.56 240.065 194.56C239.041 194.56 238.201 194.944 237.545 195.712C236.889 196.48 236.561 197.44 236.561 198.592C236.561 199.744 236.881 200.704 237.521 201.472C238.177 202.224 239.025 202.6 240.065 202.6ZM252.594 203.536C252.594 203.952 252.45 204.304 252.162 204.592C251.89 204.864 251.546 205 251.13 205C250.73 205 250.394 204.864 250.122 204.592C249.85 204.304 249.714 203.952 249.714 203.536V188.704C249.714 188.288 249.85 187.944 250.122 187.672C250.41 187.384 250.762 187.24 251.178 187.24C251.578 187.24 251.914 187.384 252.186 187.672C252.458 187.944 252.594 188.288 252.594 188.704V203.536ZM262.065 202.288C262.289 202.288 262.489 202.4 262.665 202.624C262.857 202.832 262.953 203.112 262.953 203.464C262.953 203.896 262.713 204.264 262.233 204.568C261.769 204.856 261.241 205 260.648 205C259.657 205 258.817 204.792 258.129 204.376C257.457 203.944 257.121 203.04 257.121 201.664V195.04H256.017C255.633 195.04 255.313 194.912 255.057 194.656C254.801 194.4 254.673 194.08 254.673 193.696C254.673 193.328 254.801 193.024 255.057 192.784C255.313 192.528 255.633 192.4 256.017 192.4H257.121V190.864C257.121 190.448 257.257 190.104 257.529 189.832C257.817 189.544 258.169 189.4 258.585 189.4C258.985 189.4 259.321 189.544 259.593 189.832C259.865 190.104 260.001 190.448 260.001 190.864V192.4H261.705C262.089 192.4 262.409 192.528 262.665 192.784C262.921 193.04 263.049 193.36 263.049 193.744C263.049 194.112 262.921 194.424 262.665 194.68C262.409 194.92 262.089 195.04 261.705 195.04H260.001V201.544C260.001 201.88 260.089 202.128 260.265 202.288C260.441 202.432 260.681 202.504 260.985 202.504C261.113 202.504 261.289 202.472 261.513 202.408C261.705 202.328 261.889 202.288 262.065 202.288ZM272.437 191.92C274.021 191.92 275.117 192.408 275.725 193.384C276.333 194.344 276.637 195.68 276.637 197.392V203.536C276.637 203.952 276.501 204.304 276.229 204.592C275.957 204.864 275.613 205 275.197 205C274.781 205 274.437 204.864 274.165 204.592C273.893 204.304 273.757 203.952 273.757 203.536V197.392C273.757 196.512 273.581 195.824 273.229 195.328C272.893 194.816 272.293 194.56 271.429 194.56C270.533 194.56 269.829 194.832 269.317 195.376C268.821 195.904 268.573 196.576 268.573 197.392V203.536C268.573 203.952 268.437 204.304 268.165 204.592C267.893 204.864 267.549 205 267.133 205C266.717 205 266.373 204.864 266.101 204.592C265.829 204.304 265.693 203.952 265.693 203.536V188.704C265.693 188.288 265.829 187.944 266.101 187.672C266.373 187.384 266.717 187.24 267.133 187.24C267.549 187.24 267.893 187.384 268.165 187.672C268.437 187.944 268.573 188.288 268.573 188.704V194.008C269.005 193.432 269.549 192.944 270.205 192.544C270.877 192.128 271.621 191.92 272.437 191.92Z" fill="#25C685"/>
</g>
<defs>
<clipPath id="clip0">
<rect width="375" height="812" fill="white"/>
</clipPath>
</defs>
</svg>
