<svg width="32" height="32" viewBox="0 0 32 32" fill="none" xmlns="http://www.w3.org/2000/svg">
<path d="M16 26.6667C13.8903 26.6667 11.828 26.0411 10.0739 24.869C8.31979 23.6969 6.95262 22.031 6.14529 20.082C5.33795 18.1329 5.12672 15.9882 5.53829 13.919C5.94987 11.8499 6.96577 9.94929 8.45753 8.45753C9.94929 6.96577 11.8499 5.94987 13.919 5.53829C15.9882 5.12672 18.1329 5.33795 20.082 6.14529C22.031 6.95262 23.6969 8.31979 24.869 10.0739C26.0411 11.828 26.6667 13.8903 26.6667 16C26.6667 18.829 25.5429 21.5421 23.5425 23.5425C21.5421 25.5429 18.829 26.6667 16 26.6667V26.6667ZM16 8C14.4177 8 12.871 8.46919 11.5554 9.34824C10.2398 10.2273 9.21446 11.4767 8.60896 12.9385C8.00346 14.4003 7.84504 16.0089 8.15372 17.5607C8.4624 19.1126 9.22433 20.538 10.3431 21.6569C11.462 22.7757 12.8874 23.5376 14.4393 23.8463C15.9911 24.155 17.5997 23.9965 19.0615 23.391C20.5233 22.7855 21.7727 21.7602 22.6518 20.4446C23.5308 19.129 24 17.5823 24 16C24 13.8783 23.1571 11.8434 21.6569 10.3431C20.1566 8.84286 18.1217 8 16 8ZM17.3333 0H14.6667V4H17.3333V0ZM17.3333 28H14.6667V32H17.3333V28ZM32 14.6667H28V17.3333H32V14.6667ZM4 14.6667H0V17.3333H4V14.6667ZM28.2533 26.3733L25.4267 23.5467L23.5467 25.4267L26.3733 28.2533L28.2533 26.3733ZM8.45333 6.57333L5.62667 3.74667L3.74667 5.62667L6.57333 8.45333L8.45333 6.57333ZM8.45333 25.4267L6.57333 23.5467L3.74667 26.3733L5.62667 28.2533L8.45333 25.4267ZM28.2533 5.62667L26.3733 3.74667L23.5467 6.57333L25.4267 8.45333L28.2533 5.62667Z" fill="black"/>
</svg>
