<svg width="29" height="23" viewBox="0 0 29 23" fill="none" xmlns="http://www.w3.org/2000/svg">
<path d="M27.088 11.3874C27.9314 10.2464 28.4772 8.85724 28.4772 7.31927C28.4772 3.59839 25.4508 0.522461 21.6803 0.522461C18.4556 0.522461 15.7765 2.75499 15.082 5.7317C13.6432 4.4914 11.8572 3.74723 9.92236 3.74723C5.80458 3.74723 2.38136 6.97199 2.08369 11.0402C0.744168 12.3301 0 14.0665 0 15.9021C0 19.623 3.02632 22.6493 6.74721 22.6493H22.1269C25.8477 22.6493 28.8741 19.623 28.8741 15.9021C28.8741 14.2153 28.2291 12.6277 27.088 11.3874ZM21.6803 2.50693C24.3098 2.50693 26.4927 4.64024 26.4927 7.31927C26.4927 8.36112 26.1454 9.30375 25.5997 10.0975C24.2602 7.4185 21.4819 5.68209 18.4556 5.68209C18.0091 5.68209 17.5626 5.7317 17.1161 5.78131C17.761 3.89607 19.547 2.50693 21.6803 2.50693ZM22.1269 20.6649H6.74721C4.11778 20.6649 1.98447 18.5315 1.98447 15.9021C1.98447 14.513 2.62943 13.1735 3.72088 12.2308L4.06816 11.9332V11.4867C4.11777 8.31151 6.7472 5.7317 9.92236 5.7317C11.758 5.7317 13.4448 6.5751 14.5362 8.01384L15.0324 8.6588L15.7765 8.31151C16.1734 8.11306 16.5207 7.96423 16.9176 7.86501C17.4137 7.71617 17.9098 7.66656 18.4556 7.66656C20.8369 7.66656 23.0199 9.1053 23.9625 11.2882L24.0617 11.4867L24.1113 11.5859L24.409 11.7347C24.9051 11.9828 25.3516 12.3797 25.6989 12.7766C26.4431 13.62 26.8896 14.761 26.8896 15.9021C26.8896 18.5315 24.7563 20.6649 22.1269 20.6649Z" fill="black"/>
</svg>
